<svg version="1.1"
	 xmlns="http://www.w3.org/2000/svg" xmlns:xlink="http://www.w3.org/1999/xlink" xmlns:a="http://ns.adobe.com/AdobeSVGViewerExtensions/3.0/"
	viewBox="0 0 99.9 20">
<g>
	<path fill="#FFFFFF" d="M0,16.2h1.5c0.3,0,0.6,0,0.9,0.1c0.3,0.1,0.5,0.2,0.7,0.4c0.2,0.2,0.3,0.4,0.4,0.6c0.1,0.2,0.2,0.5,0.2,0.7
		v0c0,0.3-0.1,0.5-0.2,0.7S3.2,19.2,3,19.4c-0.2,0.2-0.4,0.3-0.7,0.4c-0.3,0.1-0.6,0.1-0.9,0.1H0V16.2z M1.5,19.3
		c0.2,0,0.4,0,0.6-0.1c0.2-0.1,0.3-0.1,0.4-0.3s0.2-0.2,0.3-0.4c0.1-0.2,0.1-0.3,0.1-0.5v0c0-0.2,0-0.4-0.1-0.5
		c-0.1-0.2-0.2-0.3-0.3-0.4c-0.1-0.1-0.3-0.2-0.4-0.3c-0.2-0.1-0.4-0.1-0.6-0.1H0.7v2.5L1.5,19.3L1.5,19.3z"/>
	<path fill="#FFFFFF" d="M4.4,16.2h3v0.6H5.1v0.9h2v0.6h-2v1h2.3v0.6h-3V16.2z"/>
	<path fill="#FFFFFF" d="M7.9,16.2h0.8L9.9,19l1.2-2.8h0.8l-1.7,3.7H9.6L7.9,16.2z"/>
	<path fill="#FFFFFF" d="M12.5,16.2h3v0.6h-2.3v0.9h2v0.6h-2v1h2.3v0.6h-3C12.5,19.9,12.5,16.2,12.5,16.2z"/>
	<path fill="#FFFFFF" d="M16.3,16.2H17v3.1h2.1v0.6h-2.8C16.3,19.9,16.3,16.2,16.3,16.2z"/>
	<path fill="#FFFFFF" d="M21.7,20c-0.3,0-0.6-0.1-0.9-0.2c-0.3-0.1-0.5-0.2-0.7-0.4c-0.2-0.2-0.3-0.4-0.4-0.6
		c-0.1-0.2-0.2-0.5-0.2-0.7v0c0-0.3,0.1-0.5,0.2-0.7c0.1-0.2,0.2-0.4,0.4-0.6s0.4-0.3,0.7-0.4c0.3-0.1,0.5-0.2,0.9-0.2
		s0.6,0.1,0.9,0.2c0.3,0.1,0.5,0.2,0.7,0.4c0.2,0.2,0.3,0.4,0.4,0.6c0.1,0.2,0.2,0.5,0.2,0.7v0c0,0.3-0.1,0.5-0.2,0.7
		c-0.1,0.2-0.2,0.4-0.4,0.6c-0.2,0.2-0.4,0.3-0.7,0.4C22.3,19.9,22.1,20,21.7,20z M21.8,19.4c0.2,0,0.4,0,0.5-0.1
		c0.2-0.1,0.3-0.2,0.4-0.3c0.1-0.1,0.2-0.3,0.3-0.4c0.1-0.2,0.1-0.3,0.1-0.5v0c0-0.2,0-0.4-0.1-0.5c-0.1-0.2-0.2-0.3-0.3-0.4
		c-0.1-0.1-0.3-0.2-0.4-0.3c-0.2-0.1-0.4-0.1-0.5-0.1c-0.2,0-0.4,0-0.5,0.1c-0.2,0.1-0.3,0.2-0.4,0.3c-0.1,0.1-0.2,0.3-0.3,0.4
		c-0.1,0.2-0.1,0.3-0.1,0.5v0c0,0.2,0,0.4,0.1,0.5s0.2,0.3,0.3,0.4c0.1,0.1,0.3,0.2,0.4,0.3C21.4,19.3,21.6,19.4,21.8,19.4z"/>
	<path fill="#FFFFFF" d="M24.7,16.2h1.6c0.2,0,0.4,0,0.6,0.1c0.2,0.1,0.4,0.1,0.5,0.3c0.1,0.1,0.2,0.2,0.3,0.4
		c0.1,0.2,0.1,0.3,0.1,0.5v0c0,0.2,0,0.4-0.1,0.5c-0.1,0.2-0.2,0.3-0.3,0.4c-0.1,0.1-0.3,0.2-0.5,0.2c-0.2,0.1-0.4,0.1-0.6,0.1h-0.8
		v1.2h-0.7L24.7,16.2L24.7,16.2z M26.2,18.1c0.3,0,0.5-0.1,0.6-0.2c0.2-0.1,0.2-0.3,0.2-0.5v0c0-0.2-0.1-0.4-0.2-0.5
		c-0.2-0.1-0.4-0.2-0.6-0.2h-0.8v1.3L26.2,18.1L26.2,18.1z"/>
	<path fill="#FFFFFF" d="M28.4,16.2h0.8l1.2,1.7l1.2-1.7h0.8v3.7h-0.7v-2.7L30.4,19h0l-1.3-1.7v2.6h-0.7L28.4,16.2L28.4,16.2z"/>
	<path fill="#FFFFFF" d="M33.4,16.2h3v0.6h-2.3v0.9h2v0.6h-2v1h2.3v0.6h-3V16.2z"/>
	<path fill="#FFFFFF" d="M37.2,16.2h0.7l2.2,2.6v-2.6h0.7v3.7h-0.6l-2.2-2.6v2.6h-0.7V16.2z"/>
	<path fill="#FFFFFF" d="M42.7,16.8h-1.3v-0.6h3.3v0.6h-1.3v3.1h-0.7L42.7,16.8L42.7,16.8z"/>
	<path fill="#FFFFFF" d="M49.3,19.5c-0.2,0.1-0.4,0.3-0.6,0.4c-0.2,0.1-0.4,0.1-0.7,0.1c-0.2,0-0.4,0-0.5-0.1s-0.3-0.1-0.4-0.2
		c-0.1-0.1-0.2-0.2-0.3-0.3c-0.1-0.1-0.1-0.3-0.1-0.4v0c0-0.2,0.1-0.4,0.2-0.6c0.1-0.2,0.4-0.3,0.6-0.4c-0.1-0.1-0.2-0.3-0.3-0.4
		c-0.1-0.1-0.1-0.3-0.1-0.4v0c0-0.1,0-0.2,0.1-0.4c0.1-0.1,0.1-0.2,0.2-0.3c0.1-0.1,0.2-0.2,0.4-0.2c0.1-0.1,0.3-0.1,0.5-0.1
		c0.2,0,0.3,0,0.4,0.1c0.1,0,0.2,0.1,0.3,0.2c0.1,0.1,0.2,0.2,0.2,0.3c0,0.1,0.1,0.2,0.1,0.3v0c0,0.2-0.1,0.4-0.2,0.6
		s-0.4,0.3-0.6,0.4l0.7,0.6c0.1-0.1,0.2-0.2,0.2-0.3s0.1-0.2,0.2-0.4l0.5,0.3c-0.1,0.1-0.2,0.3-0.3,0.4s-0.2,0.3-0.3,0.4l0.6,0.6
		L49.8,20L49.3,19.5z M48.1,19.4c0.1,0,0.3,0,0.4-0.1c0.1-0.1,0.2-0.1,0.4-0.2L48,18.2c-0.2,0.1-0.3,0.2-0.4,0.3
		c-0.1,0.1-0.1,0.2-0.1,0.3v0c0,0.2,0.1,0.3,0.2,0.4C47.8,19.4,47.9,19.4,48.1,19.4z M48.2,17.6c0.2-0.1,0.4-0.2,0.5-0.2
		c0.1-0.1,0.2-0.2,0.2-0.3v0c0-0.1,0-0.2-0.1-0.3c-0.1-0.1-0.2-0.1-0.3-0.1c-0.1,0-0.3,0-0.3,0.1c-0.1,0.1-0.1,0.2-0.1,0.3v0
		c0,0.1,0,0.2,0.1,0.3C48,17.4,48.1,17.5,48.2,17.6z"/>
	<path fill="#FFFFFF" d="M54.5,20c-0.3,0-0.6,0-0.8-0.1c-0.3-0.1-0.5-0.2-0.7-0.4c-0.2-0.2-0.3-0.4-0.4-0.6
		c-0.1-0.2-0.2-0.5-0.2-0.7v0c0-0.3,0.1-0.5,0.2-0.7c0.1-0.2,0.2-0.4,0.4-0.6c0.2-0.2,0.4-0.3,0.7-0.4c0.3-0.1,0.5-0.2,0.8-0.2
		c0.2,0,0.4,0,0.5,0s0.3,0.1,0.4,0.1c0.1,0.1,0.2,0.1,0.4,0.2c0.1,0.1,0.2,0.1,0.3,0.2l-0.5,0.5c-0.2-0.1-0.3-0.2-0.5-0.3
		c-0.2-0.1-0.4-0.1-0.6-0.1c-0.2,0-0.4,0-0.5,0.1c-0.2,0.1-0.3,0.2-0.4,0.3c-0.1,0.1-0.2,0.3-0.3,0.4c-0.1,0.2-0.1,0.3-0.1,0.5v0
		c0,0.2,0,0.4,0.1,0.5s0.2,0.3,0.3,0.4s0.3,0.2,0.4,0.3c0.2,0.1,0.3,0.1,0.5,0.1c0.2,0,0.5,0,0.6-0.1c0.2-0.1,0.4-0.2,0.5-0.4
		l0.5,0.4c-0.1,0.1-0.2,0.2-0.3,0.3c-0.1,0.1-0.2,0.1-0.4,0.2c-0.1,0.1-0.3,0.1-0.4,0.1C54.9,19.9,54.7,20,54.5,20z"/>
	<path fill="#FFFFFF" d="M58.8,20c-0.3,0-0.6-0.1-0.9-0.2c-0.3-0.1-0.5-0.2-0.7-0.4c-0.2-0.2-0.3-0.4-0.4-0.6
		c-0.1-0.2-0.2-0.5-0.2-0.7v0c0-0.3,0.1-0.5,0.2-0.7c0.1-0.2,0.2-0.4,0.4-0.6s0.4-0.3,0.7-0.4c0.3-0.1,0.5-0.2,0.9-0.2
		c0.3,0,0.6,0.1,0.9,0.2c0.3,0.1,0.5,0.2,0.7,0.4c0.2,0.2,0.3,0.4,0.4,0.6s0.2,0.5,0.2,0.7v0c0,0.3-0.1,0.5-0.2,0.7
		c-0.1,0.2-0.2,0.4-0.4,0.6c-0.2,0.2-0.4,0.3-0.7,0.4C59.4,19.9,59.1,20,58.8,20z M58.8,19.4c0.2,0,0.4,0,0.5-0.1
		c0.2-0.1,0.3-0.2,0.4-0.3s0.2-0.3,0.3-0.4c0.1-0.2,0.1-0.3,0.1-0.5v0c0-0.2,0-0.4-0.1-0.5c-0.1-0.2-0.2-0.3-0.3-0.4
		c-0.1-0.1-0.3-0.2-0.4-0.3c-0.2-0.1-0.4-0.1-0.6-0.1c-0.2,0-0.4,0-0.5,0.1c-0.2,0.1-0.3,0.2-0.4,0.3c-0.1,0.1-0.2,0.3-0.3,0.4
		c-0.1,0.2-0.1,0.3-0.1,0.5v0c0,0.2,0,0.4,0.1,0.5c0.1,0.2,0.2,0.3,0.3,0.4c0.1,0.1,0.3,0.2,0.4,0.3C58.4,19.3,58.6,19.4,58.8,19.4z
		"/>
	<path fill="#FFFFFF" d="M61.7,16.2h0.7l2.2,2.6v-2.6h0.7v3.7h-0.6l-2.2-2.6v2.6h-0.7C61.7,19.9,61.7,16.2,61.7,16.2z"/>
	<path fill="#FFFFFF" d="M67.6,19.9c-0.3,0-0.6,0-0.9-0.1c-0.3-0.1-0.5-0.2-0.8-0.4l0.4-0.5c0.2,0.2,0.4,0.3,0.6,0.4
		c0.2,0.1,0.4,0.1,0.7,0.1c0.2,0,0.4,0,0.5-0.1c0.1-0.1,0.2-0.2,0.2-0.3v0c0-0.1,0-0.1,0-0.2c0-0.1-0.1-0.1-0.1-0.1
		s-0.2-0.1-0.3-0.1c-0.1,0-0.3-0.1-0.5-0.1c-0.2,0-0.4-0.1-0.6-0.2c-0.2-0.1-0.3-0.1-0.4-0.2c-0.1-0.1-0.2-0.2-0.3-0.3
		c-0.1-0.1-0.1-0.3-0.1-0.4v0c0-0.2,0-0.3,0.1-0.4c0.1-0.1,0.2-0.2,0.3-0.3c0.1-0.1,0.3-0.2,0.4-0.2c0.2-0.1,0.4-0.1,0.6-0.1
		c0.3,0,0.6,0,0.8,0.1c0.2,0.1,0.5,0.2,0.7,0.3l-0.4,0.5c-0.2-0.1-0.4-0.2-0.5-0.3c-0.2-0.1-0.4-0.1-0.5-0.1c-0.2,0-0.4,0-0.5,0.1
		s-0.2,0.2-0.2,0.3v0c0,0.1,0,0.1,0,0.2s0.1,0.1,0.1,0.1s0.2,0.1,0.3,0.1c0.1,0,0.3,0.1,0.5,0.1c0.2,0,0.4,0.1,0.6,0.2
		c0.2,0.1,0.3,0.1,0.4,0.2c0.1,0.1,0.2,0.2,0.2,0.3c0.1,0.1,0.1,0.2,0.1,0.4v0c0,0.2,0,0.3-0.1,0.5c-0.1,0.1-0.2,0.3-0.3,0.3
		c-0.1,0.1-0.3,0.2-0.5,0.2C68,19.9,67.8,19.9,67.6,19.9z"/>
	<path fill="#FFFFFF" d="M70.8,16.8h-1.3v-0.6h3.3v0.6h-1.3v3.1h-0.7L70.8,16.8L70.8,16.8z"/>
	<path fill="#FFFFFF" d="M73.5,16.2h1.8c0.3,0,0.5,0,0.7,0.1c0.2,0.1,0.4,0.2,0.5,0.3c0.1,0.1,0.2,0.2,0.2,0.4
		c0.1,0.1,0.1,0.3,0.1,0.4v0c0,0.2,0,0.3-0.1,0.4c0,0.1-0.1,0.2-0.2,0.3s-0.2,0.2-0.3,0.2c-0.1,0.1-0.2,0.1-0.4,0.1l1.1,1.4h-0.8
		l-1-1.3h0h-0.9v1.3h-0.7V16.2z M75.2,18c0.3,0,0.5-0.1,0.6-0.2c0.2-0.1,0.2-0.3,0.2-0.5v0c0-0.2-0.1-0.4-0.2-0.5
		c-0.1-0.1-0.4-0.2-0.6-0.2h-1V18H75.2z"/>
	<path fill="#FFFFFF" d="M79.2,19.9c-0.3,0-0.5,0-0.7-0.1c-0.2-0.1-0.4-0.2-0.5-0.3c-0.2-0.1-0.3-0.3-0.3-0.5
		c-0.1-0.2-0.1-0.4-0.1-0.7v-2.1h0.7v2.1c0,0.3,0.1,0.6,0.3,0.8c0.2,0.2,0.4,0.3,0.8,0.3c0.3,0,0.6-0.1,0.7-0.3
		c0.2-0.2,0.3-0.4,0.3-0.8v-2.1H81v2.1c0,0.3,0,0.5-0.1,0.7c-0.1,0.2-0.2,0.4-0.3,0.5c-0.2,0.1-0.3,0.2-0.5,0.3
		C79.7,19.9,79.5,19.9,79.2,19.9z"/>
	<path fill="#FFFFFF" d="M83.8,20c-0.3,0-0.6,0-0.8-0.1c-0.3-0.1-0.5-0.2-0.7-0.4c-0.2-0.2-0.3-0.4-0.4-0.6
		c-0.1-0.2-0.2-0.5-0.2-0.7v0c0-0.3,0.1-0.5,0.2-0.7c0.1-0.2,0.2-0.4,0.4-0.6c0.2-0.2,0.4-0.3,0.7-0.4c0.3-0.1,0.5-0.2,0.8-0.2
		c0.2,0,0.4,0,0.5,0c0.2,0,0.3,0.1,0.4,0.1c0.1,0.1,0.2,0.1,0.4,0.2c0.1,0.1,0.2,0.1,0.3,0.2l-0.5,0.5c-0.2-0.1-0.3-0.2-0.5-0.3
		c-0.2-0.1-0.4-0.1-0.6-0.1c-0.2,0-0.4,0-0.5,0.1c-0.2,0.1-0.3,0.2-0.4,0.3c-0.1,0.1-0.2,0.3-0.3,0.4c-0.1,0.2-0.1,0.3-0.1,0.5v0
		c0,0.2,0,0.4,0.1,0.5c0.1,0.2,0.2,0.3,0.3,0.4s0.3,0.2,0.4,0.3c0.2,0.1,0.3,0.1,0.5,0.1c0.2,0,0.5,0,0.6-0.1
		c0.2-0.1,0.4-0.2,0.5-0.4l0.5,0.4c-0.1,0.1-0.2,0.2-0.3,0.3c-0.1,0.1-0.2,0.1-0.4,0.2c-0.1,0.1-0.3,0.1-0.4,0.1
		C84.1,19.9,84,20,83.8,20z"/>
	<path fill="#FFFFFF" d="M87.1,16.8h-1.3v-0.6h3.3v0.6h-1.3v3.1h-0.7C87.1,19.9,87.1,16.8,87.1,16.8z"/>
	<path fill="#FFFFFF" d="M89.8,16.2h0.7v3.7h-0.7V16.2z"/>
	<path fill="#FFFFFF" d="M93.4,20c-0.3,0-0.6-0.1-0.9-0.2c-0.3-0.1-0.5-0.2-0.7-0.4c-0.2-0.2-0.3-0.4-0.4-0.6
		c-0.1-0.2-0.2-0.5-0.2-0.7v0c0-0.3,0.1-0.5,0.2-0.7c0.1-0.2,0.2-0.4,0.4-0.6c0.2-0.2,0.4-0.3,0.7-0.4c0.3-0.1,0.5-0.2,0.9-0.2
		c0.3,0,0.6,0.1,0.9,0.2c0.3,0.1,0.5,0.2,0.7,0.4c0.2,0.2,0.3,0.4,0.4,0.6s0.2,0.5,0.2,0.7v0c0,0.3-0.1,0.5-0.2,0.7
		c-0.1,0.2-0.2,0.4-0.4,0.6c-0.2,0.2-0.4,0.3-0.7,0.4C94,19.9,93.8,20,93.4,20z M93.5,19.4c0.2,0,0.4,0,0.5-0.1
		c0.2-0.1,0.3-0.2,0.4-0.3c0.1-0.1,0.2-0.3,0.3-0.4c0.1-0.2,0.1-0.3,0.1-0.5v0c0-0.2,0-0.4-0.1-0.5c-0.1-0.2-0.2-0.3-0.3-0.4
		c-0.1-0.1-0.3-0.2-0.4-0.3c-0.2-0.1-0.4-0.1-0.6-0.1c-0.2,0-0.4,0-0.5,0.1c-0.2,0.1-0.3,0.2-0.4,0.3c-0.1,0.1-0.2,0.3-0.3,0.4
		c-0.1,0.2-0.1,0.3-0.1,0.5v0c0,0.2,0,0.4,0.1,0.5s0.2,0.3,0.3,0.4c0.1,0.1,0.3,0.2,0.4,0.3C93.1,19.3,93.3,19.4,93.5,19.4z"/>
	<path fill="#FFFFFF" d="M96.4,16.2H97l2.2,2.6v-2.6h0.7v3.7h-0.6l-2.2-2.6v2.6h-0.7V16.2z"/>
</g>
<g>
	<path fill="#FFFFFF" d="M9,7.1C8.7,6.9,8.4,6.7,8.1,6.5C7.8,6.4,7.6,6.3,7.4,6.2C7.5,6.1,7.6,6.1,7.8,6C8,5.8,8.3,5.6,8.5,5.4
		C8.7,5.1,8.8,4.8,9,4.5c0.1-0.3,0.2-0.7,0.2-1.1v0c0-0.8-0.3-1.5-0.8-2C8,1,7.5,0.7,7,0.5C6.4,0.3,5.8,0.2,5.1,0.2H0v12.4h5.4
		c0.7,0,1.3-0.1,1.8-0.2c0.5-0.2,1-0.4,1.4-0.7C9,11.4,9.3,11,9.5,10.6c0.2-0.4,0.3-0.9,0.3-1.4v0c0-0.4-0.1-0.8-0.2-1.2
		C9.4,7.6,9.2,7.4,9,7.1z M1.2,6.9h4c1.2,0,2.1,0.2,2.7,0.6c0.6,0.4,0.9,0.9,0.9,1.6v0c0,0.7-0.3,1.3-0.9,1.7
		c-0.6,0.4-1.4,0.6-2.4,0.6H1.2V6.9z M6.2,5.7C5.9,5.8,5.5,5.8,5,5.8H1.2V1.3h3.9c0.9,0,1.7,0.2,2.2,0.6C7.8,2.3,8,2.8,8,3.5
		c0,0.4-0.1,0.7-0.2,1C7.6,4.8,7.4,5,7.2,5.2C6.9,5.4,6.6,5.6,6.2,5.7z"/>
	<path fill="#FFFFFF" d="M18.8,7c0.4-0.2,0.8-0.4,1.2-0.7c0.3-0.3,0.6-0.7,0.8-1.1C20.9,4.8,21,4.4,21,3.8v0c0-0.5-0.1-0.9-0.3-1.3
		c-0.2-0.4-0.4-0.8-0.7-1.1c-0.4-0.4-0.9-0.7-1.5-0.9c-0.6-0.2-1.3-0.3-2-0.3h-5.2v12.4h1.2v-5h3.7l3.8,5h1.5l-4-5.2
		C18,7.3,18.4,7.2,18.8,7z M12.5,1.3h4c1.1,0,1.9,0.2,2.5,0.7c0.6,0.5,0.9,1.1,0.9,1.8v0c0,0.4-0.1,0.8-0.3,1.1
		c-0.2,0.3-0.4,0.6-0.7,0.8c-0.3,0.2-0.7,0.4-1.1,0.5c-0.4,0.1-0.9,0.2-1.4,0.2h-3.9L12.5,1.3L12.5,1.3z"/>
	<rect x="22.9" y="0.2" fill="#FFFFFF" width="1.2" height="12.4"/>
	<path fill="#FFFFFF" d="M31.2,0.1l-5.8,12.4h1.2l1.5-3.4h7l1.5,3.4H38L32.2,0.1C32.2,0.1,31.2,0.1,31.2,0.1z M34.7,8.1h-5.9l3-6.5
		L34.7,8.1z"/>
	<polygon fill="#FFFFFF" points="48.6,0.2 48.6,10.5 40.5,0.3 40.4,0.2 39.4,0.2 39.4,12.6 40.5,12.6 40.5,2.1 48.8,12.5 48.8,12.6
		49.7,12.6 49.7,0.2 	"/>
</g>
<path fill="#FFFFFF" d="M65.7,0.4h9.7v2.8H69V5h5.8v2.6H69v1.9h6.5v2.8h-9.8L65.7,0.4L65.7,0.4z"/>
<path fill="#FFFFFF" d="M77.2,0.4h9.7v2.8h-6.4V5h5.8v2.6h-5.8v1.9H87v2.8h-9.8C77.2,12.5,77.2,0.4,77.2,0.4z"/>
<path fill="#FFFFFF" d="M88.8,0.4h5.7c0.9,0,1.7,0.1,2.4,0.3c0.6,0.2,1.2,0.6,1.6,1c0.7,0.7,1.1,1.6,1.1,2.8v0
	c0,0.9-0.2,1.7-0.7,2.3c-0.4,0.6-1.1,1.1-1.8,1.4l2.9,4.2H96l-2.4-3.7h0h-1.4v3.7h-3.3V0.4z M94.3,6.2c0.6,0,1-0.1,1.3-0.4
	c0.3-0.3,0.5-0.6,0.5-1v0c0-0.5-0.2-0.8-0.5-1.1c-0.3-0.2-0.8-0.4-1.3-0.4h-2.2v2.9C92.1,6.2,94.3,6.2,94.3,6.2z"/>
<path fill="#FFFFFF" d="M57.3,7.9h3.2v1.5c-0.5,0.3-1.2,0.5-2.1,0.5c-0.5,0-1-0.1-1.4-0.3c-0.4-0.2-0.8-0.4-1.1-0.7
	s-0.6-0.7-0.7-1.1C55.1,7.4,55,6.9,55,6.5v0c0-0.5,0.1-0.9,0.3-1.3c0.2-0.4,0.4-0.8,0.7-1.1c0.3-0.3,0.6-0.5,1-0.7
	C57.4,3.1,57.8,3,58.3,3c0.6,0,1.2,0.1,1.7,0.3c0.2,0.1,0.5,0.2,0.7,0.3l2.4-2.2c-0.6-0.4-1.2-0.8-1.9-1c-0.8-0.3-1.8-0.5-3-0.5
	c-1,0-1.9,0.2-2.8,0.5c-0.9,0.3-1.6,0.8-2.2,1.4c-0.6,0.6-1.1,1.3-1.4,2c-0.3,0.8-0.5,1.6-0.5,2.5v0c0,0.9,0.2,1.8,0.5,2.6
	c0.4,0.8,0.8,1.4,1.5,2c0.6,0.6,1.4,1,2.2,1.3c0.9,0.3,1.8,0.5,2.8,0.5c1.2,0,2.2-0.2,3.2-0.5c0.9-0.4,1.7-0.8,2.4-1.4V5.4h-3.8
	L57.3,7.9z"/>
</svg>