<svg version="1.1"
	 xmlns="http://www.w3.org/2000/svg" xmlns:xlink="http://www.w3.org/1999/xlink"
	 xmlns:a="http://ns.adobe.com/AdobeSVGViewerExtensions/3.0/"  viewBox="0 0 318.8 60.7"
	 xml:space="preserve">
<g>
	<g>
		<path fill="#FFFFFF" d="M100.4,52.4h3.3c0.7,0,1.3,0.1,1.9,0.3c0.6,0.2,1.1,0.5,1.5,0.8c0.4,0.4,0.7,0.8,1,1.3
			c0.2,0.5,0.3,1,0.3,1.6v0c0,0.6-0.1,1.1-0.3,1.6c-0.2,0.5-0.5,0.9-1,1.3c-0.4,0.4-0.9,0.6-1.5,0.9c-0.6,0.2-1.2,0.3-1.9,0.3h-3.3
			V52.4z M103.7,59.2c0.5,0,0.9-0.1,1.3-0.2c0.4-0.1,0.7-0.3,1-0.6c0.3-0.2,0.5-0.5,0.6-0.9c0.1-0.3,0.2-0.7,0.2-1.1v0
			c0-0.4-0.1-0.8-0.2-1.1c-0.1-0.3-0.4-0.6-0.6-0.9c-0.3-0.2-0.6-0.4-1-0.6c-0.4-0.1-0.8-0.2-1.3-0.2H102v5.5H103.7z"/>
		<path fill="#FFFFFF" d="M110.1,52.4h6.5v1.3h-5v2.1h4.4v1.3h-4.4v2.2h5.1v1.3h-6.6V52.4z"/>
		<path fill="#FFFFFF" d="M117.7,52.4h1.7l2.7,6.2l2.6-6.2h1.7l-3.7,8.1h-1.4L117.7,52.4z"/>
		<path fill="#FFFFFF" d="M127.8,52.4h6.5v1.3h-5v2.1h4.4v1.3h-4.4v2.2h5.1v1.3h-6.6V52.4z"/>
		<path fill="#FFFFFF" d="M136.1,52.4h1.5v6.8h4.6v1.3h-6.2V52.4z"/>
		<path fill="#FFFFFF" d="M148,60.7c-0.7,0-1.3-0.1-1.9-0.3s-1-0.5-1.4-0.9c-0.4-0.4-0.7-0.8-0.9-1.3c-0.2-0.5-0.3-1-0.3-1.6v0
			c0-0.6,0.1-1.1,0.3-1.6c0.2-0.5,0.5-0.9,1-1.3c0.4-0.4,0.9-0.7,1.5-0.9c0.6-0.2,1.2-0.3,1.9-0.3c0.7,0,1.3,0.1,1.9,0.3
			s1,0.5,1.4,0.9c0.4,0.4,0.7,0.8,0.9,1.3c0.2,0.5,0.3,1,0.3,1.6v0c0,0.6-0.1,1.1-0.3,1.6c-0.2,0.5-0.5,0.9-1,1.3
			c-0.4,0.4-0.9,0.7-1.5,0.9C149.3,60.5,148.6,60.7,148,60.7z M148,59.3c0.4,0,0.8-0.1,1.2-0.2c0.4-0.2,0.7-0.4,0.9-0.6
			c0.3-0.3,0.5-0.6,0.6-0.9c0.1-0.3,0.2-0.7,0.2-1.1v0c0-0.4-0.1-0.8-0.2-1.1c-0.1-0.4-0.4-0.7-0.6-0.9c-0.3-0.3-0.6-0.5-0.9-0.6
			c-0.4-0.2-0.8-0.2-1.2-0.2s-0.8,0.1-1.2,0.2c-0.4,0.2-0.7,0.4-0.9,0.6c-0.3,0.3-0.5,0.6-0.6,0.9c-0.1,0.3-0.2,0.7-0.2,1.1v0
			c0,0.4,0.1,0.8,0.2,1.1c0.1,0.4,0.4,0.7,0.6,0.9c0.3,0.3,0.6,0.5,0.9,0.6C147.2,59.3,147.6,59.3,148,59.3z"/>
		<path fill="#FFFFFF" d="M154.3,52.4h3.5c0.5,0,1,0.1,1.4,0.2c0.4,0.1,0.8,0.3,1.1,0.5c0.3,0.2,0.5,0.5,0.7,0.9
			c0.2,0.3,0.2,0.7,0.2,1.1v0c0,0.5-0.1,0.9-0.3,1.2c-0.2,0.3-0.4,0.6-0.8,0.9c-0.3,0.2-0.7,0.4-1.1,0.5c-0.4,0.1-0.9,0.2-1.4,0.2
			h-1.8v2.6h-1.5V52.4z M157.7,56.6c0.6,0,1.1-0.1,1.4-0.4c0.3-0.3,0.5-0.6,0.5-1v0c0-0.5-0.2-0.8-0.5-1.1c-0.3-0.2-0.8-0.4-1.4-0.4
			h-1.8v2.9H157.7z"/>
		<path fill="#FFFFFF" d="M162.6,52.4h1.7l2.7,3.8l2.7-3.8h1.7v8.1h-1.5v-5.8l-2.8,3.8h-0.1l-2.8-3.8v5.8h-1.5V52.4z"/>
		<path fill="#FFFFFF" d="M173.4,52.4h6.5v1.3h-5v2.1h4.4v1.3H175v2.2h5.1v1.3h-6.6V52.4z"/>
		<path fill="#FFFFFF" d="M181.8,52.4h1.4l4.7,5.6v-5.6h1.5v8.1h-1.3l-4.9-5.8v5.8h-1.5V52.4z"/>
		<path fill="#FFFFFF" d="M193.7,53.7h-2.8v-1.3h7.2v1.3h-2.8v6.8h-1.6V53.7z"/>
		<path fill="#FFFFFF" d="M208.2,59.6c-0.4,0.3-0.8,0.6-1.2,0.8c-0.4,0.2-0.9,0.3-1.5,0.3c-0.4,0-0.8-0.1-1.1-0.2
			c-0.3-0.1-0.7-0.3-0.9-0.5c-0.3-0.2-0.5-0.4-0.6-0.7c-0.1-0.3-0.2-0.6-0.2-0.9v0c0-0.5,0.2-1,0.5-1.3c0.3-0.4,0.8-0.7,1.4-0.9
			c-0.3-0.3-0.4-0.6-0.6-0.8c-0.1-0.3-0.2-0.6-0.2-0.8v0c0-0.3,0.1-0.5,0.2-0.8c0.1-0.2,0.3-0.5,0.5-0.6c0.2-0.2,0.5-0.3,0.8-0.4
			c0.3-0.1,0.7-0.2,1.1-0.2c0.4,0,0.7,0.1,1,0.2c0.3,0.1,0.5,0.2,0.7,0.4c0.2,0.2,0.4,0.4,0.5,0.6c0.1,0.2,0.2,0.5,0.2,0.8v0
			c0,0.5-0.2,1-0.5,1.3c-0.4,0.3-0.8,0.6-1.4,0.8l1.5,1.4c0.2-0.2,0.3-0.5,0.5-0.7c0.2-0.3,0.3-0.5,0.5-0.8l1.2,0.6
			c-0.2,0.3-0.4,0.6-0.6,1c-0.2,0.3-0.4,0.6-0.6,0.9l1.4,1.3l-1.1,0.8L208.2,59.6z M205.7,59.5c0.3,0,0.6-0.1,0.9-0.2
			c0.3-0.1,0.5-0.3,0.8-0.5l-2-1.8c-0.4,0.2-0.7,0.4-0.9,0.6c-0.2,0.2-0.3,0.5-0.3,0.7v0c0,0.3,0.1,0.6,0.4,0.8
			C204.9,59.3,205.2,59.5,205.7,59.5z M205.9,55.6c0.5-0.2,0.8-0.3,1-0.5c0.2-0.2,0.4-0.4,0.4-0.7v0c0-0.3-0.1-0.5-0.3-0.7
			c-0.2-0.2-0.4-0.3-0.7-0.3c-0.3,0-0.6,0.1-0.8,0.3c-0.2,0.2-0.3,0.4-0.3,0.7v0c0,0.2,0.1,0.4,0.2,0.6
			C205.5,55.1,205.6,55.4,205.9,55.6z"/>
		<path fill="#FFFFFF" d="M219.7,60.7c-0.6,0-1.2-0.1-1.8-0.3c-0.5-0.2-1-0.5-1.4-0.9c-0.4-0.4-0.7-0.8-0.9-1.3
			c-0.2-0.5-0.3-1.1-0.3-1.6v0c0-0.6,0.1-1.1,0.3-1.6c0.2-0.5,0.5-0.9,0.9-1.3c0.4-0.4,0.9-0.7,1.4-0.9c0.6-0.2,1.2-0.3,1.8-0.3
			c0.4,0,0.8,0,1.1,0.1c0.3,0.1,0.6,0.1,0.9,0.3c0.3,0.1,0.5,0.2,0.8,0.4c0.2,0.2,0.5,0.3,0.7,0.5l-1,1.1c-0.4-0.3-0.7-0.5-1.1-0.7
			c-0.4-0.2-0.8-0.3-1.3-0.3c-0.4,0-0.8,0.1-1.2,0.2c-0.4,0.2-0.7,0.4-0.9,0.6c-0.3,0.3-0.5,0.6-0.6,0.9c-0.1,0.3-0.2,0.7-0.2,1.1v0
			c0,0.4,0.1,0.8,0.2,1.1c0.1,0.4,0.3,0.7,0.6,0.9c0.3,0.3,0.6,0.5,0.9,0.6c0.4,0.1,0.7,0.2,1.2,0.2c0.5,0,1-0.1,1.4-0.3
			c0.4-0.2,0.8-0.4,1.1-0.8l1,0.9c-0.2,0.2-0.5,0.4-0.7,0.6c-0.2,0.2-0.5,0.3-0.8,0.5c-0.3,0.1-0.6,0.2-0.9,0.3
			C220.5,60.6,220.1,60.7,219.7,60.7z"/>
		<path fill="#FFFFFF" d="M228.9,60.7c-0.7,0-1.3-0.1-1.9-0.3c-0.6-0.2-1-0.5-1.4-0.9c-0.4-0.4-0.7-0.8-0.9-1.3
			c-0.2-0.5-0.3-1-0.3-1.6v0c0-0.6,0.1-1.1,0.3-1.6c0.2-0.5,0.5-0.9,1-1.3c0.4-0.4,0.9-0.7,1.5-0.9c0.6-0.2,1.2-0.3,1.9-0.3
			c0.7,0,1.3,0.1,1.9,0.3c0.6,0.2,1,0.5,1.4,0.9c0.4,0.4,0.7,0.8,0.9,1.3c0.2,0.5,0.3,1,0.3,1.6v0c0,0.6-0.1,1.1-0.3,1.6
			c-0.2,0.5-0.5,0.9-1,1.3c-0.4,0.4-0.9,0.7-1.5,0.9C230.2,60.5,229.6,60.7,228.9,60.7z M229,59.3c0.4,0,0.8-0.1,1.2-0.2
			c0.4-0.2,0.7-0.4,0.9-0.6c0.3-0.3,0.5-0.6,0.6-0.9c0.1-0.3,0.2-0.7,0.2-1.1v0c0-0.4-0.1-0.8-0.2-1.1c-0.1-0.4-0.3-0.7-0.6-0.9
			c-0.3-0.3-0.6-0.5-0.9-0.6c-0.4-0.2-0.8-0.2-1.2-0.2c-0.4,0-0.8,0.1-1.2,0.2c-0.4,0.2-0.7,0.4-0.9,0.6c-0.3,0.3-0.5,0.6-0.6,0.9
			c-0.1,0.3-0.2,0.7-0.2,1.1v0c0,0.4,0.1,0.8,0.2,1.1c0.1,0.4,0.4,0.7,0.6,0.9c0.3,0.3,0.6,0.5,0.9,0.6
			C228.1,59.3,228.5,59.3,229,59.3z"/>
		<path fill="#FFFFFF" d="M235.3,52.4h1.4l4.7,5.6v-5.6h1.5v8.1h-1.3l-4.9-5.8v5.8h-1.5V52.4z"/>
		<path fill="#FFFFFF" d="M248.2,60.6c-0.7,0-1.3-0.1-2-0.3c-0.6-0.2-1.2-0.5-1.7-1l0.9-1c0.4,0.3,0.9,0.6,1.3,0.8
			c0.4,0.2,0.9,0.3,1.5,0.3c0.5,0,0.9-0.1,1.1-0.3c0.3-0.2,0.4-0.4,0.4-0.7v0c0-0.1,0-0.3-0.1-0.4c-0.1-0.1-0.2-0.2-0.3-0.3
			c-0.1-0.1-0.3-0.2-0.6-0.3c-0.3-0.1-0.6-0.2-1-0.3c-0.5-0.1-0.9-0.2-1.3-0.3c-0.4-0.1-0.7-0.3-0.9-0.5c-0.2-0.2-0.4-0.4-0.6-0.7
			c-0.1-0.3-0.2-0.6-0.2-0.9v0c0-0.3,0.1-0.7,0.2-1c0.2-0.3,0.4-0.5,0.6-0.7c0.3-0.2,0.6-0.4,0.9-0.5c0.4-0.1,0.8-0.2,1.2-0.2
			c0.6,0,1.2,0.1,1.7,0.3c0.5,0.2,1,0.4,1.5,0.8l-0.8,1.1c-0.4-0.3-0.8-0.5-1.2-0.6c-0.4-0.1-0.8-0.2-1.2-0.2
			c-0.5,0-0.8,0.1-1.1,0.3c-0.3,0.2-0.4,0.4-0.4,0.7v0c0,0.2,0,0.3,0.1,0.4c0.1,0.1,0.2,0.2,0.3,0.3c0.2,0.1,0.4,0.2,0.6,0.3
			c0.3,0.1,0.6,0.2,1,0.3c0.5,0.1,0.9,0.2,1.2,0.4c0.4,0.1,0.7,0.3,0.9,0.5c0.2,0.2,0.4,0.4,0.5,0.7c0.1,0.2,0.2,0.5,0.2,0.9v0
			c0,0.4-0.1,0.7-0.2,1c-0.2,0.3-0.4,0.6-0.6,0.8c-0.3,0.2-0.6,0.4-1,0.5C249.1,60.6,248.7,60.6,248.2,60.6z"/>
		<path fill="#FFFFFF" d="M255.2,53.7h-2.8v-1.3h7.2v1.3h-2.8v6.8h-1.6V53.7z"/>
		<path fill="#FFFFFF" d="M261.1,52.4h3.9c0.6,0,1,0.1,1.5,0.2c0.4,0.1,0.8,0.3,1.1,0.6c0.2,0.2,0.4,0.5,0.5,0.8
			c0.1,0.3,0.2,0.6,0.2,1v0c0,0.3-0.1,0.6-0.2,0.9c-0.1,0.3-0.3,0.5-0.4,0.7c-0.2,0.2-0.4,0.4-0.7,0.5c-0.3,0.1-0.5,0.3-0.8,0.3
			l2.4,3.1h-1.8l-2.2-2.8h0h-1.9v2.8h-1.5V52.4z M264.9,56.4c0.6,0,1-0.1,1.3-0.4c0.3-0.2,0.5-0.6,0.5-1v0c0-0.4-0.2-0.8-0.5-1
			c-0.3-0.2-0.8-0.3-1.4-0.3h-2.3v2.7H264.9z"/>
		<path fill="#FFFFFF" d="M273.7,60.6c-0.6,0-1.1-0.1-1.5-0.2c-0.5-0.2-0.9-0.4-1.2-0.7c-0.3-0.3-0.6-0.7-0.8-1.1
			c-0.2-0.4-0.3-1-0.3-1.5v-4.7h1.5V57c0,0.8,0.2,1.3,0.6,1.7c0.4,0.4,0.9,0.6,1.6,0.6c0.7,0,1.2-0.2,1.6-0.6
			c0.4-0.4,0.6-0.9,0.6-1.7v-4.7h1.5V57c0,0.6-0.1,1.1-0.3,1.6c-0.2,0.5-0.4,0.8-0.8,1.1c-0.3,0.3-0.7,0.5-1.2,0.7
			C274.8,60.6,274.3,60.6,273.7,60.6z"/>
		<path fill="#FFFFFF" d="M283.6,60.7c-0.6,0-1.2-0.1-1.8-0.3c-0.5-0.2-1-0.5-1.4-0.9c-0.4-0.4-0.7-0.8-0.9-1.3
			c-0.2-0.5-0.3-1.1-0.3-1.6v0c0-0.6,0.1-1.1,0.3-1.6c0.2-0.5,0.5-0.9,0.9-1.3c0.4-0.4,0.9-0.7,1.4-0.9c0.6-0.2,1.2-0.3,1.8-0.3
			c0.4,0,0.8,0,1.1,0.1c0.3,0.1,0.6,0.1,0.9,0.3c0.3,0.1,0.5,0.2,0.8,0.4c0.2,0.2,0.5,0.3,0.7,0.5l-1,1.1c-0.4-0.3-0.7-0.5-1.1-0.7
			c-0.4-0.2-0.8-0.3-1.3-0.3c-0.4,0-0.8,0.1-1.2,0.2c-0.4,0.2-0.7,0.4-0.9,0.6c-0.3,0.3-0.5,0.6-0.6,0.9c-0.1,0.3-0.2,0.7-0.2,1.1v0
			c0,0.4,0.1,0.8,0.2,1.1c0.1,0.4,0.3,0.7,0.6,0.9c0.3,0.3,0.6,0.5,0.9,0.6c0.4,0.1,0.7,0.2,1.2,0.2c0.5,0,1-0.1,1.4-0.3
			c0.4-0.2,0.8-0.4,1.1-0.8l1,0.9c-0.2,0.2-0.5,0.4-0.7,0.6c-0.2,0.2-0.5,0.3-0.8,0.5c-0.3,0.1-0.6,0.2-0.9,0.3
			C284.4,60.6,284,60.7,283.6,60.7z"/>
		<path fill="#FFFFFF" d="M290.8,53.7H288v-1.3h7.2v1.3h-2.8v6.8h-1.6V53.7z"/>
		<path fill="#FFFFFF" d="M296.8,52.4h1.5v8.1h-1.5V52.4z"/>
		<path fill="#FFFFFF" d="M304.8,60.7c-0.7,0-1.3-0.1-1.9-0.3c-0.6-0.2-1-0.5-1.4-0.9c-0.4-0.4-0.7-0.8-0.9-1.3
			c-0.2-0.5-0.3-1-0.3-1.6v0c0-0.6,0.1-1.1,0.3-1.6c0.2-0.5,0.5-0.9,1-1.3c0.4-0.4,0.9-0.7,1.5-0.9c0.6-0.2,1.2-0.3,1.9-0.3
			c0.7,0,1.3,0.1,1.9,0.3c0.6,0.2,1,0.5,1.4,0.9c0.4,0.4,0.7,0.8,0.9,1.3c0.2,0.5,0.3,1,0.3,1.6v0c0,0.6-0.1,1.1-0.3,1.6
			c-0.2,0.5-0.5,0.9-1,1.3c-0.4,0.4-0.9,0.7-1.5,0.9C306.1,60.5,305.5,60.7,304.8,60.7z M304.8,59.3c0.4,0,0.8-0.1,1.2-0.2
			c0.4-0.2,0.7-0.4,0.9-0.6c0.3-0.3,0.5-0.6,0.6-0.9c0.1-0.3,0.2-0.7,0.2-1.1v0c0-0.4-0.1-0.8-0.2-1.1c-0.1-0.4-0.4-0.7-0.6-0.9
			c-0.3-0.3-0.6-0.5-0.9-0.6c-0.4-0.2-0.8-0.2-1.2-0.2c-0.4,0-0.8,0.1-1.2,0.2c-0.4,0.2-0.7,0.4-0.9,0.6c-0.3,0.3-0.5,0.6-0.6,0.9
			c-0.1,0.3-0.2,0.7-0.2,1.1v0c0,0.4,0.1,0.8,0.2,1.1c0.1,0.4,0.4,0.7,0.6,0.9c0.3,0.3,0.6,0.5,0.9,0.6
			C304,59.3,304.4,59.3,304.8,59.3z"/>
		<path fill="#FFFFFF" d="M311.2,52.4h1.4l4.7,5.6v-5.6h1.5v8.1h-1.3l-4.9-5.8v5.8h-1.5V52.4z"/>
	</g>
	<g>
		<path fill="none" d="M117.4,26.8c0.3-0.6,0.5-1.4,0.5-2.2c0-1.5-0.5-2.5-1.6-3.4c-1.1-0.9-2.7-1.3-4.7-1.3H103v9.9h8.4
			c1,0,1.8-0.1,2.6-0.4c0.8-0.2,1.5-0.6,2.1-1C116.6,28,117.1,27.4,117.4,26.8z"/>
		<path fill="none" d="M117.5,40.8c1.3-0.9,1.9-2.1,1.9-3.7V37c0-1.5-0.6-2.7-1.9-3.6c-1.3-0.9-3.3-1.3-5.8-1.3H103v10h9.3
			C114.5,42.2,116.2,41.7,117.5,40.8z"/>
		<path fill="none" d="M139.3,30.8c0.9-0.3,1.7-0.7,2.3-1.1c0.6-0.5,1.1-1.1,1.5-1.8c0.4-0.7,0.6-1.5,0.6-2.4v-0.1
			c0-1.7-0.6-3-1.9-4c-1.3-1-3.1-1.5-5.4-1.5h-8.7v11.3h8.6C137.4,31.2,138.4,31.1,139.3,30.8z"/>
		<polygon fill="none" points="163.2,34.8 176.2,34.8 169.8,20.5 		"/>
		<path fill="#FFFFFF" d="M120,32.6c-0.6-0.5-1.2-1-2-1.3c-0.5-0.2-1-0.4-1.5-0.6c0.3-0.2,0.6-0.3,0.9-0.5c0.6-0.4,1.1-0.8,1.5-1.3
			c0.4-0.5,0.8-1.2,1.1-1.9c0.3-0.7,0.4-1.5,0.4-2.5v-0.1c0-1.7-0.6-3.2-1.8-4.4c-0.8-0.8-1.8-1.4-3-1.8c-1.2-0.4-2.6-0.6-4.1-0.6
			h-11.2v27h11.8c1.5,0,2.8-0.2,4-0.5c1.2-0.3,2.2-0.8,3.1-1.5c0.9-0.6,1.5-1.4,2-2.4c0.5-0.9,0.7-2,0.7-3.1V37
			c0-0.9-0.2-1.8-0.5-2.5C121.1,33.7,120.6,33.1,120,32.6z M103,32.1h8.6c2.5,0,4.5,0.4,5.8,1.3c1.3,0.8,1.9,2,1.9,3.6v0.1
			c0,1.6-0.6,2.8-1.9,3.7c-1.3,0.9-3,1.4-5.2,1.4H103V32.1z M114,29.4c-0.8,0.2-1.7,0.4-2.6,0.4H103v-9.9h8.6c2.1,0,3.7,0.4,4.7,1.3
			c1.1,0.8,1.6,1.9,1.6,3.4c0,0.8-0.2,1.6-0.5,2.2c-0.3,0.6-0.8,1.2-1.3,1.6C115.5,28.8,114.8,29.2,114,29.4z"/>
		<path fill="#FFFFFF" d="M141.4,32.4c1-0.4,1.8-0.9,2.5-1.6c0.7-0.7,1.3-1.4,1.7-2.3c0.4-0.9,0.6-1.9,0.6-3.1v-0.1
			c0-1-0.2-1.9-0.6-2.8c-0.4-0.9-0.9-1.7-1.5-2.3c-0.8-0.8-1.9-1.5-3.2-2c-1.3-0.5-2.8-0.7-4.4-0.7h-11.4v27h2.6V33.6h8.2l8.4,10.9
			h3.2l-8.8-11.4C139.7,33,140.6,32.8,141.4,32.4z M127.7,19.9h8.7c2.3,0,4.2,0.5,5.4,1.5c1.3,1,1.9,2.3,1.9,4v0.1
			c0,0.9-0.2,1.7-0.6,2.4c-0.4,0.7-0.9,1.3-1.5,1.8c-0.6,0.5-1.4,0.9-2.3,1.1c-0.9,0.3-1.9,0.4-3,0.4h-8.6V19.9z"/>
		<rect x="150.5" y="17.5" fill="#FFFFFF" width="2.6" height="27"/>
		<path fill="#FFFFFF" d="M168.7,17.3l-12.6,27.2h2.7l3.4-7.4h15.2l3.4,7.4h2.8l-12.6-27.2H168.7z M176.2,34.8h-13l6.5-14.3
			L176.2,34.8z"/>
		<polygon fill="#FFFFFF" points="206.6,17.5 206.6,40 188.9,17.6 188.9,17.5 186.6,17.5 186.6,44.5 189,44.5 189,21.6 207.1,44.4
			207.2,44.5 209.1,44.5 209.1,17.5 		"/>
	</g>
	<path fill="#FFFFFF" d="M244.1,17.8h21.2v6.2h-14v4H264v5.8h-12.7V38h14.2v6.2h-21.4V17.8z"/>
	<path fill="#FFFFFF" d="M269.3,17.8h21.2v6.2h-14v4h12.7v5.8h-12.7V38h14.2v6.2h-21.4V17.8z"/>
	<path fill="#FFFFFF" d="M294.5,17.8H307c2,0,3.8,0.2,5.2,0.8c1.4,0.5,2.6,1.2,3.4,2.1c1.6,1.5,2.3,3.6,2.3,6.2v0.1
		c0,2-0.5,3.7-1.5,5.1c-1,1.3-2.3,2.4-4,3.1l6.3,9.2h-8.5l-5.3-8H305h-3.1v8h-7.3V17.8z M306.7,30.5c1.3,0,2.2-0.3,2.9-0.8
		c0.7-0.6,1-1.3,1-2.3v-0.1c0-1.1-0.4-1.8-1.1-2.4c-0.7-0.5-1.7-0.8-2.9-0.8h-4.8v6.3H306.7z"/>
	<polygon fill="#FFFFFF" points="80.7,18.2 40.4,0 0,18.2 0,27.1 5.7,24.5 5.7,60.7 13.9,60.7 13.9,20.8 40.4,8.9 66.8,20.8
		66.8,60.7 75,60.7 75,24.5 80.7,27.1 	"/>
	<path fill="#FFFFFF" d="M38.4,45.5h9.9v4.6c-1.7,1-3.8,1.6-6.4,1.6c-1.6,0-3-0.3-4.4-0.8c-1.3-0.5-2.4-1.2-3.4-2.2
		c-1-0.9-1.7-2-2.2-3.3c-0.5-1.3-0.8-2.7-0.8-4.2v-0.1c0-1.4,0.3-2.8,0.8-4.1c0.5-1.3,1.2-2.4,2.2-3.3c0.9-0.9,2-1.7,3.2-2.2
		c1.2-0.5,2.6-0.8,4-0.8c2,0,3.7,0.3,5.2,0.9c0.7,0.3,1.4,0.6,2.1,1l7.5-6.7c-1.8-1.3-3.7-2.3-5.7-3.1c-2.6-1-5.6-1.5-9.1-1.5
		c-3.1,0-5.9,0.5-8.5,1.5c-2.6,1-4.9,2.4-6.8,4.2c-1.9,1.8-3.4,3.9-4.4,6.3c-1.1,2.4-1.6,5-1.6,7.7v0.1c0,2.9,0.5,5.5,1.6,7.9
		c1.1,2.4,2.6,4.5,4.5,6.2c1.9,1.7,4.2,3.1,6.8,4c2.6,1,5.5,1.4,8.6,1.4c3.6,0,6.9-0.6,9.8-1.7c2.9-1.1,5.4-2.5,7.5-4.2v-17H47
		L38.4,45.5z"/>
	<path fill="#FFFFFF" d="M225.8,34.2h7v3.3c-1.2,0.7-2.7,1.1-4.5,1.1c-1.1,0-2.2-0.2-3.1-0.6c-0.9-0.4-1.7-0.9-2.4-1.5
		c-0.7-0.7-1.2-1.4-1.6-2.4c-0.4-0.9-0.6-1.9-0.6-3V31c0-1,0.2-2,0.6-2.9c0.4-0.9,0.9-1.7,1.5-2.3c0.6-0.7,1.4-1.2,2.3-1.6
		c0.9-0.4,1.8-0.6,2.8-0.6c1.4,0,2.6,0.2,3.7,0.7c0.5,0.2,1,0.5,1.5,0.7l5.4-4.8c-1.3-0.9-2.6-1.6-4.1-2.2c-1.8-0.7-4-1-6.5-1
		c-2.2,0-4.2,0.4-6.1,1.1c-1.9,0.7-3.5,1.7-4.8,3c-1.3,1.3-2.4,2.8-3.2,4.5c-0.8,1.7-1.1,3.5-1.1,5.5v0.1c0,2,0.4,3.9,1.2,5.6
		c0.8,1.7,1.9,3.2,3.2,4.4c1.4,1.2,3,2.2,4.9,2.9c1.9,0.7,3.9,1,6.1,1c2.6,0,4.9-0.4,6.9-1.2c2-0.8,3.8-1.8,5.3-3V28.7h-8.4
		L225.8,34.2z"/>
</g>
</svg>