<svg version="1.1"
	 xmlns="http://www.w3.org/2000/svg" xmlns:xlink="http://www.w3.org/1999/xlink" xmlns:a="http://ns.adobe.com/AdobeSVGViewerExtensions/3.0/"
	 viewBox="0 0 80.7 60.7"
	 xml:space="preserve">
<g>
	<polygon fill="#FFFFFF" points="80.7,18.2 40.4,0 0,18.2 0,27.1 5.7,24.5 5.7,60.7 13.9,60.7 13.9,20.8 40.4,8.9 66.8,20.8
		66.8,60.7 75,60.7 75,24.5 80.7,27.1 	"/>
	<path fill="#FFFFFF" d="M38.4,45.5h9.9v4.6c-1.7,1-3.8,1.6-6.4,1.6c-1.6,0-3-0.3-4.4-0.8c-1.3-0.5-2.4-1.2-3.4-2.2
		c-1-0.9-1.7-2-2.2-3.3c-0.5-1.3-0.8-2.7-0.8-4.2v-0.1c0-1.4,0.3-2.8,0.8-4.1c0.5-1.3,1.2-2.4,2.2-3.3c0.9-0.9,2-1.7,3.2-2.2
		c1.2-0.5,2.6-0.8,4-0.8c2,0,3.7,0.3,5.2,0.9c0.7,0.3,1.4,0.6,2.1,1l7.5-6.7c-1.8-1.3-3.7-2.3-5.7-3.1c-2.6-1-5.6-1.5-9.1-1.5
		c-3.1,0-5.9,0.5-8.5,1.5c-2.6,1-4.9,2.4-6.8,4.2c-1.9,1.8-3.4,3.9-4.4,6.3c-1.1,2.4-1.6,5-1.6,7.7v0.1c0,2.9,0.5,5.5,1.6,7.9
		c1.1,2.4,2.6,4.5,4.5,6.2c1.9,1.7,4.2,3.1,6.8,4c2.6,1,5.5,1.4,8.6,1.4c3.6,0,6.9-0.6,9.8-1.7c2.9-1.1,5.4-2.5,7.5-4.2v-17H47
		L38.4,45.5z"/>
</g>
</svg>